<svg width="80" height="105" viewBox="0 0 80 105" fill="none" xmlns="http://www.w3.org/2000/svg">
<g clip-path="url(#clip0_145_1417)">
<path d="M79.9498 40.4848V42.9081C79.9498 43.812 79.2093 44.545 78.2963 44.545H46.7557C45.8427 44.545 45.1023 45.2781 45.1023 46.1819V63.9814H78.2963C79.2093 63.9814 79.9498 63.0954 79.9498 62.0029V40.4848Z" fill="white"/>
<path d="M78.2963 0H1.69296C0.779992 0 0.0395508 0.733046 0.0395508 1.6369V44.545H0.107844V77.4752C0.107844 78.379 0.848285 79.1121 1.76126 79.1121H43.4488C44.3618 79.1121 45.1022 78.379 45.1022 77.4752V46.1819C45.1022 45.2781 45.8427 44.545 46.7556 44.545H78.2963C79.2092 44.545 79.9497 43.812 79.9497 42.9081V1.6369C79.9497 0.733046 79.2092 0 78.2963 0Z" fill="#4BFFC4"/>
<path d="M75.0147 88.1328C76.8514 88.1328 77.9477 89.1612 77.9477 90.9582C77.9477 92.7553 76.8694 93.8406 74.9356 93.8406H71.7043V88.1328H75.0147ZM75.3525 95.5771C78.1669 95.5771 80.0001 93.6413 80.0001 90.976C80.0001 88.3107 78.1849 86.3927 75.3525 86.3927H69.7453V100.673H71.7007V95.5771H75.3525ZM65.3171 100.911C66.0755 100.911 66.7332 100.278 66.7332 99.5271C66.7332 98.7762 66.0755 98.125 65.3171 98.125C64.5586 98.125 63.8793 98.7584 63.8793 99.5271C63.8793 100.296 64.5371 100.911 65.3171 100.911ZM61.1691 86.1365H59.2929V100.673H61.1691V86.1365ZM51.9927 99.4701C50.7742 99.4701 50.0194 98.9577 50.0194 97.9293C50.0194 96.9828 50.6987 96.3493 52.3521 96.1928L54.8466 95.9935V96.5059C54.8466 98.3243 53.7683 99.4701 51.9927 99.4701ZM51.4535 100.911C53.0315 100.911 54.365 100.221 54.8646 99.1143L55.0623 100.673H56.6582V94.6092C56.6582 92.0009 55.0228 90.7376 52.6073 90.7376C50.1919 90.7376 48.4163 92.0614 48.4163 94.0755H50.0517C50.0517 92.9083 50.9503 92.2179 52.5247 92.2179C53.8402 92.2179 54.8179 92.7909 54.8179 94.41V94.6875L51.7447 94.926C49.4515 95.1039 48.1144 96.2106 48.1144 97.9862C48.1144 99.7619 49.3508 100.911 51.4464 100.911M45.1274 100.673V92.5738H47.0433V91.0152H45.1274V87.994H43.2512V91.0152H41.3354V92.5738H43.2512V100.673H45.1274ZM37.7877 100.673H39.664V91.0152H37.7877V100.673ZM38.7043 88.7235C39.3836 88.7235 39.9408 88.172 39.9408 87.4994C39.9408 86.8269 39.3836 86.2753 38.7043 86.2753C38.025 86.2753 37.4678 86.8091 37.4678 87.4994C37.4678 88.1897 38.025 88.7235 38.7043 88.7235ZM27.7127 95.8547C27.7127 93.8406 28.8701 92.4386 30.7859 92.4386C32.7017 92.4386 33.8375 93.862 33.8375 95.8547C33.8375 97.8475 32.7017 99.2531 30.7859 99.2531C28.8701 99.2531 27.7127 97.8297 27.7127 95.8547ZM25.8149 105H27.6911V99.0929C28.3309 100.278 29.6249 100.929 31.1813 100.929C34.0747 100.929 35.7102 98.7157 35.7102 95.7729C35.7102 92.83 33.9741 90.7376 31.1813 90.7376C29.6249 90.7376 28.3094 91.428 27.6516 92.7517L27.5114 91.0152H25.8149V105ZM18.5542 99.4701C17.3357 99.4701 16.5809 98.9577 16.5809 97.9293C16.5809 96.9828 17.2603 96.3493 18.9137 96.1928L21.4082 95.9935V96.5059C21.4082 98.3243 20.3299 99.4701 18.5542 99.4701ZM18.0151 100.911C19.593 100.911 20.9265 100.221 21.4261 99.1143L21.6238 100.673H23.2197V94.6092C23.2197 92.0009 21.5843 90.7376 19.1689 90.7376C16.7535 90.7376 14.9778 92.0614 14.9778 94.0755H16.6133C16.6133 92.9083 17.5119 92.2179 19.0862 92.2179C20.4017 92.2179 21.3794 92.7909 21.3794 94.41V94.6875L18.3062 94.926C16.013 95.1039 14.6759 96.2106 14.6759 97.9862C14.6759 99.7619 15.9124 100.911 18.0079 100.911M6.84376 100.89C10.0967 100.89 12.6702 98.9933 13.2885 96.1501H11.2145C10.6754 97.908 9.00038 99.0324 6.88689 99.0324C3.97545 99.0324 2.05964 96.8582 2.05964 93.5203C2.05964 90.1825 3.97545 88.0083 6.88689 88.0083C8.98241 88.0083 10.5963 89.1327 11.1354 90.9903H13.231C12.6918 88.0688 10.1973 86.1507 6.94799 86.1507C2.81806 86.1507 0.00366211 89.1327 0.00366211 93.5381C0.00366211 97.9435 2.73539 100.886 6.84735 100.886" fill="white"/>
</g>
<defs>
<clipPath id="clip0_145_1417">
<rect width="80" height="105" fill="white"/>
</clipPath>
</defs>
</svg>
